<?xml version="1.0" encoding="utf-8"?>
<!-- Generator: Adobe Illustrator 27.0.0, SVG Export Plug-In . SVG Version: 6.00 Build 0)  -->
<svg version="1.1" id="Layer_1" xmlns="http://www.w3.org/2000/svg" xmlns:xlink="http://www.w3.org/1999/xlink" x="0px" y="0px"
	 viewBox="0 0 511.14 510.98" style="enable-background:new 0 0 511.14 510.98;" xml:space="preserve">
<style type="text/css">
	.st0{fill:#C9DC5E;}
	.st1{fill:#FFFFFF;}
</style>
<g>
	<path class="st0" d="M502.28,190.92C467.3,56.73,333.18-24.1,198.46,6.44C96.4,29.57,17.67,114.67,2.75,217.8
		c-0.81,5.61-0.51,11.44-2.75,16.83c0,14.3,0,28.6,0,42.9c2.44,4.99,1.84,10.52,2.76,15.77c16.9,96.48,71,163.1,161.18,200.58
		c21.42,8.9,44.01,13.57,67.06,15.99c1.17,0.12,2.75-0.62,3.46,1.11c13.3,0,26.6,0,39.91,0c0.27-1.1,1.18-0.9,1.97-0.96
		c45.95-3.8,87.8-18.97,125.64-45.26c6.7-4.66,7.77-8.23,4.74-15.61c4.6-4.68,10.31-8.13,14.61-13.15
		c3.17,2.14,6.35,4.02,10.47,2.66c7.22-2.39,8.95-9.57,4.04-17.15c4.38-4.87,8.77-9.74,13.15-14.61c7.11,2.91,10.94,1.98,15.02-3.98
		C508.38,337.96,522.1,266.96,502.28,190.92z M407.13,196.34c0.12,4.01-2.39,6.45-4.89,8.94c-30.1,30.08-60.19,60.18-90.28,90.28
		c-26.8,26.8-53.6,53.61-80.4,80.4c-7.53,7.53-11.63,7.5-19.26-0.12c-34.45-34.44-68.89-68.88-103.33-103.32
		c-7.39-7.39-7.44-11.64-0.18-18.91c17.27-17.29,34.55-34.57,51.83-51.84c7.1-7.1,11.49-7.11,18.56-0.05
		c13.18,13.15,26.43,26.23,39.42,39.57c2.85,2.92,4.25,2.49,6.87-0.15c35.18-35.35,70.47-70.59,105.73-105.86
		c7.6-7.6,11.71-7.62,19.28-0.07c17.29,17.27,34.56,34.56,51.85,51.83C404.96,189.66,407.49,192.3,407.13,196.34z"/>
	<path class="st1" d="M402.33,187.04c-17.29-17.27-34.56-34.56-51.85-51.83c-7.56-7.56-11.67-7.53-19.28,0.07
		c-35.26,35.27-70.55,70.51-105.73,105.86c-2.62,2.63-4.02,3.07-6.87,0.15c-12.99-13.34-26.24-26.42-39.42-39.57
		c-7.07-7.06-11.46-7.04-18.56,0.05c-17.29,17.27-34.56,34.56-51.83,51.84c-7.26,7.27-7.21,11.51,0.18,18.91
		c34.44,34.44,68.89,68.88,103.33,103.32c7.62,7.62,11.72,7.65,19.26,0.12c26.81-26.8,53.6-53.6,80.4-80.4
		c30.09-30.09,60.18-60.19,90.28-90.28c2.5-2.49,5.01-4.94,4.89-8.94C407.49,192.3,404.96,189.66,402.33,187.04z"/>
</g>
</svg>
