<?xml version="1.0" encoding="utf-8"?>
<!-- Generator: Adobe Illustrator 27.0.0, SVG Export Plug-In . SVG Version: 6.00 Build 0)  -->
<svg version="1.1" id="Layer_1" xmlns="http://www.w3.org/2000/svg" xmlns:xlink="http://www.w3.org/1999/xlink" x="0px" y="0px"
	 viewBox="0 0 380.61 342.58" style="enable-background:new 0 0 380.61 342.58;" xml:space="preserve">
<style type="text/css">
	.st0{fill:#EEEEEE;}
	.st1{fill:#A4AFC1;}
	.st2{fill:#020302;}
	.st3{fill:#010101;}
	.st4{fill:#050807;}
	.st5{fill:#F71E45;}
	.st6{fill:#FA4350;}
	.st7{fill:#D0D6DC;}
	.st8{fill:#D1D7DC;}
	.st9{fill:#E9E9E7;}
</style>
<g>
	<path class="st0" d="M336.91,115.94c2.89,12.21,6.5,24.19,10.87,35.95c6.48,17.46,15.73,33.43,25.19,49.4
		c9.36,15.8,10.03,32.8,2.55,49.73c-7.92,17.92-21.22,31.31-36.77,42.73c-10.55,7.75-21.72,14.51-33.54,20.09
		c-23.46,11.07-47.97,19-73.54,23.5c-13.42,2.36-26.89,4.08-40.55,4.68c-6.83,0.3-13.68,0.74-20.48,0.48
		c-28.96-1.12-57.11-6.07-83.85-17.89c-19.86-8.78-37.25-20.96-51.92-36.86c-16.89-18.3-27.75-39.76-32.49-64.31
		c-2.09-10.82-2.83-21.72-2.1-32.62c1.13-16.71,5.42-32.71,12.54-47.94c7.43-15.89,17.46-30.02,28.82-43.28
		c0.53-0.62,1.15-0.92,1.93-0.95c0.24,1.34,0.48,2.69,0.73,4.03c1.61,8.67,10.88,14.48,19.54,12.24
		c8.52-2.2,13.84-11.53,11.31-19.82c-2.27-7.44-7.1-10.82-16.67-11.68c1.71-3.31,4.95-5.17,7.62-7.45
		c14.47-12.36,30.05-23.22,46.29-33.11c27.61-16.8,56.18-31.48,88-38.74c8.09-1.84,16.27-2.93,24.57-3.66
		c19.7-1.74,38.43,1.32,55.88,10.43c19.91,10.39,34.24,26.04,41.7,47.53c0.33,0.95,0.28,2.02,1.64,2.08
		c-1.16,1.25-2.29,2.51-3.47,3.74c-0.74,0.77-1.36,1.55-0.33,2.46c2.27,1.99,3.83,4.79,6.8,5.97c0.47,6.26,2.54,12.18,3.83,18.27
		c0.39,1.82,0.66,3.6,0.62,5.45c-2.04-2.13-3.65-2.28-5.89,0.2c-5.05,5.61-5.11,4.05-0.01,9.27c1.73,1.77,3.41,3.6,5.27,5.22
		C332.93,112.77,334.11,115.35,336.91,115.94z M107.21,155.51c-0.98,5.21-1.97,10.41-2.95,15.62c-6.84,0.03-13.68,0.15-20.52,0.05
		c-2.11-0.03-2.8,0.58-2.7,2.71c0.17,3.48,0.21,6.98-0.01,10.45c-0.15,2.43,0.8,2.88,2.99,2.85c5.72-0.09,11.44,0.05,17.16,0.09
		c-1,5.27-1.99,10.54-2.99,15.8c-8.2,0.05-16.4,0.17-24.59,0.09c-2.28-0.02-3.35,0.36-3.15,2.97c0.25,3.34,0.25,6.72,0,10.06
		c-0.2,2.6,0.84,3,3.13,2.97c7.2-0.1,14.41,0.03,21.61,0.07c-0.64,3.43-1.27,6.86-1.91,10.28c-1.57,0.17-1.55,1.29-1.54,2.47
		c0.02,3.49,0.16,6.98-0.04,10.46c-0.15,2.59,0.64,3.42,3.31,3.38c9.47-0.16,18.95,0.02,28.42-0.12c2.48-0.04,3.61,0.56,4.44,3.1
		c3.61,11.04,13.75,18.22,25.17,18.2c11.4-0.02,21.57-7.25,25.09-18.31c0.85-2.68,2.14-3.02,4.51-3.01
		c19.19,0.08,38.38,0.11,57.57-0.03c2.89-0.02,3.93,0.88,4.83,3.59c3.57,10.68,13.9,17.8,25.13,17.76
		c11.14-0.04,21.19-7.03,24.77-17.68c0.97-2.88,2.2-3.76,5.18-3.67c6.4,0.2,8.58-1.75,9.98-8.13c1.71-7.77,3.38-15.56,5.06-23.34
		c1.63-7.52,3.63-14.93,1.99-22.83c-5.11-24.64-24.81-40.95-50.5-41.39c-8.22-0.14-16.46-0.17-24.68,0.05
		c-3.15,0.08-3.45-0.93-2.78-3.65c1.34-5.43,2.37-10.94,3.52-16.42c1.73-8.23-1.29-11.9-9.82-11.9
		c-37.02-0.01-74.04-0.01-111.06,0.02c-2.82,0-6.54-1.23-8.21,0.58c-1.41,1.52-0.5,5.18-0.61,7.89c-0.83,4.16-1.67,8.32-2.5,12.48
		c-5.34,0.07-10.69,0.23-16.03,0.16c-2.09-0.03-2.88,0.56-2.79,2.72c0.15,3.6,0.15,7.22,0,10.82c-0.1,2.22,0.82,2.71,2.84,2.67
		C98.75,155.3,102.98,155.46,107.21,155.51z M285.68,50.92c-0.54,0.42-1.05,0.74-1.47,1.14c-1.51,1.48-2.94,3.05-4.51,4.46
		c-1.35,1.22-1.22,2.17,0.04,3.37c2.7,2.58,5.24,5.31,7.94,7.89c6.32,6.04,3.97,6.61,11.12-0.29c1.41-1.36,1.39-2.28-0.01-3.63
		c-3.94-3.8-7.76-7.72-11.63-11.58C286.73,51.86,286.26,51.46,285.68,50.92z M283.68,115.86c0.51-0.32,0.86-0.47,1.11-0.72
		c4.23-4.22,8.45-8.44,12.65-12.68c0.58-0.58,0.81-1.38,0.21-2.01c-1.87-1.99-3.78-3.96-5.77-5.82c-0.88-0.82-1.59,0.07-2.19,0.67
		c-4.05,4.04-8.07,8.11-12.16,12.11c-1.03,1-1.11,1.73-0.02,2.73c1.65,1.51,3.17,3.16,4.78,4.72
		C282.71,115.26,283.24,115.54,283.68,115.86z"/>
	<path class="st1" d="M58.49,83.42c9.57,0.86,14.4,4.24,16.67,11.68c2.53,8.29-2.79,17.62-11.31,19.82
		c-8.67,2.24-17.93-3.57-19.54-12.24c-0.25-1.34-0.49-2.68-0.73-4.03C44.97,89.93,49.74,85.06,58.49,83.42z M59.87,104.63
		c2.66,0.03,5.27-2.49,5.33-5.14c0.06-2.62-2.49-5.26-5.14-5.32c-3.22-0.07-5.36,2.07-5.31,5.32
		C54.79,102.57,56.81,104.6,59.87,104.63z"/>
	<path class="st1" d="M327.2,72.68c-2.97-1.19-4.54-3.98-6.8-5.97c-1.04-0.91-0.41-1.7,0.33-2.46c1.18-1.23,2.32-2.49,3.47-3.74
		c2.76-2.68,5.57-5.3,8.26-8.05c1.21-1.24,1.97-1.7,3.54-0.22c6.05,5.7,6.13,5.63,0.2,11.54C333.21,66.75,330.2,69.71,327.2,72.68z"
		/>
	<path class="st1" d="M336.91,115.94c-2.8-0.58-3.98-3.17-5.89-4.84c-1.86-1.62-3.54-3.45-5.27-5.22c-5.11-5.23-5.04-3.67,0.01-9.27
		c2.24-2.49,3.85-2.33,5.89-0.2c3.43,3.56,6.81,7.18,10.33,10.64c1.36,1.34,1.5,2.2,0.03,3.54
		C340.2,112.23,338.6,114.14,336.91,115.94z"/>
	<path class="st2" d="M113.01,126.54c0.12-2.71-0.79-6.37,0.61-7.89c1.67-1.81,5.39-0.58,8.21-0.58
		c37.02-0.04,74.04-0.03,111.06-0.02c8.53,0,11.54,3.67,9.82,11.9c-1.15,5.48-2.18,10.98-3.52,16.42c-0.67,2.71-0.37,3.73,2.78,3.65
		c8.22-0.21,16.45-0.19,24.68-0.05c25.69,0.44,45.39,16.75,50.5,41.39c1.64,7.9-0.36,15.31-1.99,22.83
		c-1.68,7.78-3.35,15.56-5.06,23.34c-1.4,6.38-3.59,8.33-9.98,8.13c-2.98-0.09-4.21,0.79-5.18,3.67
		c-3.58,10.65-13.63,17.64-24.77,17.68c-11.23,0.04-21.56-7.07-25.13-17.76c-0.91-2.71-1.94-3.61-4.83-3.59
		c-19.19,0.15-38.38,0.11-57.57,0.03c-2.37-0.01-3.66,0.33-4.51,3.01c-3.53,11.05-13.7,18.29-25.09,18.31
		c-11.42,0.02-21.56-7.16-25.17-18.2c-0.83-2.54-1.96-3.14-4.44-3.1c-9.47,0.14-18.95-0.04-28.42,0.12
		c-2.67,0.04-3.46-0.78-3.31-3.38c0.21-3.47,0.07-6.97,0.04-10.46c-0.01-1.18-0.03-2.31,1.54-2.47c8.12,0.01,16.24,0.03,24.35,0.04
		c2.86,0.04,5.73,0,8.59,0.16c1.72,0.1,2.58-0.58,3.47-2.06c11.17-18.53,35.28-18.58,46.49-0.1c0.99,1.63,2.01,2.18,3.83,2.15
		c5.98-0.1,11.96-0.04,17.94-0.04c6.86,0,6.95,0.02,8.38-6.58c6.22-28.72,12.34-57.47,18.65-86.18c0.62-2.84-0.3-3.08-2.63-3.04
		c-6.23,0.11-12.46,0.03-18.69,0.04c-22.67,0.04-45.35,0.09-68.02,0.14c-4.95-0.05-9.9-0.13-14.85-0.14
		C113.37,133.88,113.37,133.9,113.01,126.54z M276.98,248.17c4.97-4.81,4.98-10.78,0.01-15.51c-4.79-3.99-10.6-3.81-14.64,0.44
		c-3.83,4.03-3.84,10.53-0.04,14.56C266.31,251.88,272.2,252.09,276.98,248.17z M159.59,232.43c-4.75-3.85-10.72-3.45-14.58,0.97
		c-3.73,4.27-3.51,10.6,0.51,14.55c4.29,4.22,10.32,4.1,14.96-0.3C164.97,242.57,164.63,236.77,159.59,232.43z M237.38,229.53
		c1.74,0.05,3.49,0.01,5.22,0.17c2.08,0.19,3.27-0.53,4.42-2.44c10.89-18.19,35.52-17.94,46.34,0.38c0.46,0.77,0.54,2.04,2.23,1.74
		c1.58-7.45,3.13-14.98,4.78-22.5c0.8-3.65,1.79-7.24,1.3-11.05c-1.84-14.25-13.2-26.47-27.33-29.13
		c-7.78-1.46-15.65-0.64-23.49-0.63c-4.35-0.04-8.71,0.04-13.06-0.18c-2.11-0.11-2.83,0.84-3.2,2.62
		c-4.17,19.62-8.33,39.25-12.61,58.85c-0.46,2.09,0.27,2.35,1.96,2.31C228.42,229.6,232.9,229.58,237.38,229.53z"/>
	<path d="M95.19,219.24c-7.2-0.04-14.41-0.17-21.61-0.07c-2.29,0.03-3.33-0.37-3.13-2.97c0.25-3.34,0.25-6.72,0-10.06
		c-0.2-2.62,0.87-3,3.15-2.97c8.2,0.08,16.4-0.04,24.59-0.09c8.24,0.33,16.48,0.3,24.72,0.02c0.74,0.05,1.49,0.23,2.21,0.12
		c3-0.47,4.23,0.55,3.92,3.75c-0.29,3.05-0.18,6.17-0.02,9.24c0.11,2.18-0.43,3.16-2.83,2.96c-2.32-0.19-4.68,0.03-7.02,0.07
		C111.17,219.24,103.18,219.24,95.19,219.24z"/>
	<path class="st3" d="M101.17,187.27c-5.72-0.05-11.44-0.19-17.16-0.09c-2.19,0.04-3.14-0.42-2.99-2.85
		c0.22-3.47,0.18-6.97,0.01-10.45c-0.1-2.12,0.58-2.74,2.7-2.71c6.84,0.1,13.68-0.02,20.52-0.05c8.19,0.05,16.37,0.1,24.56,0.15
		c0.05,3.92-0.11,7.85,0.22,11.74c0.26,3.08-0.62,4.59-3.83,4.3C117.19,186.9,109.18,186.98,101.17,187.27z"/>
	<path class="st4" d="M107.21,155.51c-4.23-0.05-8.45-0.21-12.68-0.12c-2.03,0.04-2.94-0.45-2.84-2.67c0.16-3.6,0.15-7.22,0-10.82
		c-0.09-2.16,0.7-2.75,2.79-2.72c5.34,0.07,10.69-0.09,16.03-0.16c5.09,0.05,10.19,0.21,15.27,0.12c2.34-0.04,3.39,0.52,3.23,3.1
		c-0.21,3.34-0.21,6.72,0,10.06c0.15,2.52-0.79,3.18-3.18,3.14C119.63,155.33,113.42,155.47,107.21,155.51z"/>
	<path class="st5" d="M107.21,155.51c6.21-0.04,12.42-0.18,18.63-0.07c2.4,0.04,3.34-0.62,3.18-3.14c-0.21-3.34-0.21-6.72,0-10.06
		c0.16-2.58-0.9-3.14-3.23-3.1c-5.09,0.09-10.18-0.06-15.27-0.12c0.83-4.16,1.66-8.32,2.5-12.48c0.36,7.36,0.36,7.34,7.78,7.37
		c4.95,0.02,9.9,0.09,14.85,0.14c-0.4,1.94-0.86,3.87-1.19,5.82c-1.8,10.48-4.43,20.82-5.64,31.41c-8.19-0.05-16.37-0.1-24.56-0.15
		C105.24,165.92,106.22,160.72,107.21,155.51z"/>
	<path class="st5" d="M101.17,187.27c8.01-0.29,16.02-0.37,24.03,0.04c-0.27,5.33-2.68,10.35-2.3,15.78
		c-8.24,0.28-16.48,0.31-24.72-0.02C99.18,197.81,100.18,192.54,101.17,187.27z"/>
	<path class="st5" d="M95.19,219.24c7.99,0,15.98,0,23.98,0c-0.07,3.5-1.72,6.78-1.53,10.32c-8.12-0.01-16.23-0.03-24.35-0.04
		C93.91,226.09,94.55,222.67,95.19,219.24z"/>
	<path class="st1" d="M285.68,50.92c0.58,0.53,1.05,0.93,1.48,1.37c3.87,3.87,7.69,7.79,11.63,11.58c1.4,1.35,1.42,2.27,0.01,3.63
		c-7.15,6.89-4.8,6.33-11.12,0.29c-2.7-2.58-5.24-5.31-7.94-7.89c-1.26-1.2-1.38-2.15-0.04-3.37c1.57-1.42,2.99-2.98,4.51-4.46
		C284.64,51.66,285.14,51.34,285.68,50.92z"/>
	<path class="st1" d="M283.68,115.86c-0.44-0.31-0.97-0.6-1.39-1.01c-1.61-1.56-3.13-3.2-4.78-4.72c-1.09-1-1-1.72,0.02-2.73
		c4.09-4,8.11-8.08,12.16-12.11c0.6-0.6,1.31-1.49,2.19-0.67c2,1.86,3.9,3.83,5.77,5.82c0.59,0.63,0.36,1.43-0.21,2.01
		c-4.2,4.24-8.42,8.46-12.65,12.68C284.54,115.39,284.19,115.53,283.68,115.86z"/>
	<path class="st0" d="M59.87,104.63c-3.06-0.03-5.08-2.06-5.12-5.14c-0.05-3.25,2.1-5.39,5.31-5.32c2.65,0.06,5.2,2.7,5.14,5.32
		C65.14,102.14,62.53,104.65,59.87,104.63z"/>
	<path class="st6" d="M117.63,229.56c-0.19-3.54,1.46-6.81,1.53-10.32c2.34-0.04,4.7-0.26,7.02-0.07c2.4,0.2,2.94-0.78,2.83-2.96
		c-0.16-3.07-0.27-6.19,0.02-9.24c0.31-3.21-0.92-4.22-3.92-3.75c-0.71,0.11-1.47-0.07-2.21-0.12c-0.38-5.43,2.03-10.45,2.3-15.78
		c3.21,0.29,4.09-1.22,3.83-4.3c-0.33-3.89-0.17-7.83-0.22-11.74c1.2-10.59,3.83-20.93,5.64-31.41c0.34-1.95,0.79-3.88,1.19-5.82
		c22.67-0.05,45.35-0.1,68.02-0.14c6.23-0.01,12.46,0.07,18.69-0.04c2.33-0.04,3.25,0.2,2.63,3.04
		c-6.31,28.71-12.43,57.45-18.65,86.18c-1.43,6.6-1.52,6.58-8.38,6.58c-5.98,0-11.96-0.06-17.94,0.04
		c-1.82,0.03-2.84-0.52-3.83-2.15c-11.21-18.48-35.32-18.43-46.49,0.1c-0.89,1.48-1.75,2.16-3.47,2.06
		C123.36,229.56,120.49,229.6,117.63,229.56z"/>
	<path class="st6" d="M250.85,166.08c7.84-0.02,15.71-0.84,23.49,0.63c14.13,2.66,25.49,14.88,27.33,29.13
		c0.49,3.81-0.49,7.4-1.3,11.05c-1.65,7.51-3.2,15.05-4.78,22.5c-1.69,0.31-1.77-0.96-2.23-1.74
		c-10.83-18.32-35.46-18.57-46.34-0.38c-1.14,1.91-2.33,2.63-4.42,2.44c-1.73-0.16-3.48-0.12-5.22-0.17
		C241.87,208.38,246.36,187.23,250.85,166.08z"/>
	<path class="st5" d="M250.85,166.08c-4.49,21.15-8.98,42.31-13.47,63.46c-4.48,0.04-8.96,0.06-13.43,0.15
		c-1.69,0.03-2.42-0.22-1.96-2.31c4.28-19.6,8.43-39.23,12.61-58.85c0.38-1.78,1.1-2.73,3.2-2.62
		C242.14,166.11,246.5,166.03,250.85,166.08z"/>
	<path class="st7" d="M160.47,247.65c-4.64,4.4-10.67,4.52-14.96,0.3c-4.02-3.95-4.24-10.28-0.51-14.55
		c3.87-4.42,9.83-4.82,14.58-0.97c-0.38,1.78-0.76,3.56-1.15,5.33C157.64,241.36,158.07,244.71,160.47,247.65z"/>
	<path class="st8" d="M276.98,248.17c-4.78,3.91-10.67,3.71-14.66-0.51c-3.81-4.03-3.79-10.53,0.04-14.56
		c4.05-4.25,9.85-4.43,14.64-0.44C274.81,237.83,274.79,243,276.98,248.17z"/>
	<path class="st9" d="M276.98,248.17c-2.19-5.17-2.17-10.34,0.01-15.51C281.96,237.39,281.96,243.36,276.98,248.17z"/>
	<path class="st0" d="M160.47,247.65c-2.41-2.94-2.83-6.29-2.03-9.89c0.39-1.77,0.77-3.55,1.15-5.33
		C164.63,236.77,164.97,242.57,160.47,247.65z"/>
</g>
</svg>
