<?xml version="1.0" encoding="utf-8"?>
<!-- Generator: Adobe Illustrator 27.0.0, SVG Export Plug-In . SVG Version: 6.00 Build 0)  -->
<svg version="1.1" id="Layer_1" xmlns="http://www.w3.org/2000/svg" xmlns:xlink="http://www.w3.org/1999/xlink" x="0px" y="0px"
	 viewBox="0 0 580.02 446.74" style="enable-background:new 0 0 580.02 446.74;" xml:space="preserve">
<style type="text/css">
	.st0{fill:#EC1C3C;}
	.st1{fill:#FFFFFF;}
</style>
<g>
	<polygon class="st0" points="457.28,244.57 432.76,92.51 470.25,74.99 515.44,89.71 552.93,173.45 512.99,225.65 	"/>
	<g>
		<g>
			<path class="st1" d="M478.07,266.93c-55.93,0.08-101.78-45.63-101.85-101.56c-0.07-56.24,45.35-102.16,101.12-102.22
				c56.83-0.06,102.64,45.12,102.68,101.27C580.06,221.29,534.75,266.85,478.07,266.93z M478.23,98.41c-5.3,0-10.59,0.03-15.89-0.02
				c-1.3-0.01-1.86,0.29-1.72,1.75c0.33,3.44,0.49,6.89,0.75,10.34c1.56,20.9,3.13,41.79,4.69,62.68
				c0.78,10.41,1.54,20.82,2.28,31.24c0.09,1.26,0.35,2.04,1.9,2.01c5.29-0.08,10.59-0.05,15.89-0.02c1.19,0.01,1.69-0.36,1.76-1.62
				c0.2-3.67,0.54-7.33,0.82-11c1.13-15.03,2.25-30.06,3.37-45.09c1.2-16.13,2.4-32.26,3.63-48.39c0.11-1.47-0.36-1.93-1.81-1.91
				C488.67,98.45,483.45,98.41,478.23,98.41z M478.24,216.68c-3.16,0-6.31,0.05-9.47-0.02c-1.44-0.03-1.75,0.45-1.43,1.83
				c0.86,3.79,1.65,7.6,2.36,11.42c0.26,1.37,0.95,1.75,2.25,1.73c4.04-0.06,8.08-0.08,12.11,0.01c1.43,0.03,1.89-0.58,2.17-1.85
				c0.83-3.8,1.7-7.59,2.7-11.34c0.39-1.48-0.09-1.81-1.44-1.79C484.41,216.71,481.32,216.68,478.24,216.68z"/>
			<path class="st1" d="M380.96,68.49c-2.41,2.2-4.47,3.98-6.41,5.87c-0.86,0.84-1.64,0.38-2.44,0.16
				c-10.28-2.83-20.67-5.18-31.18-7.02c-17.05-2.98-34.23-4.63-51.54-4.97c-41.01-0.79-80.86,5.54-119.49,19.35
				c-40.72,14.56-77.16,36.36-109.44,65.12c-4.72,4.21-9.26,8.62-13.84,12.98c-3.21,3.05-6.31,3.12-9.44,0
				c-11.62-11.58-23.21-23.17-34.81-34.78c-3.2-3.2-3.18-6.41,0.04-9.6C37.17,81.19,76.8,53.92,121.5,34.03
				c30.24-13.45,61.68-22.96,94.31-28.48c31.02-5.25,62.24-6.72,93.64-4.66c44.88,2.95,87.96,13.35,129.32,30.96
				c1.89,0.81,3.77,1.65,5.65,2.48c0.12,0.06,0.21,0.19,0.47,0.42c-4.25,1.09-8.38,2.16-12.53,3.21c-0.77,0.19-1.43-0.27-2.1-0.54
				c-29.25-11.98-59.5-20.36-90.78-24.9C316,9.12,292.39,7.82,268.65,8.68c-31.75,1.14-62.9,5.96-93.42,14.76
				c-50.89,14.69-96.88,38.8-137.99,72.19c-9.08,7.38-17.77,15.2-26.21,23.3c-1.14,1.09-1.29,1.74-0.06,2.96
				c9.83,9.72,19.6,19.51,29.34,29.32c1.17,1.18,1.84,1.35,3.15,0.07c31.15-30.26,66.71-53.91,106.77-70.71
				c28.01-11.75,57.08-19.65,87.21-23.59c21.06-2.76,42.19-3.64,63.39-2.52c26.61,1.41,52.71,5.85,78.3,13.32
				C379.48,67.88,379.81,68.04,380.96,68.49z"/>
			<path class="st1" d="M347.47,205.82c-1.46-0.02-2.51-0.57-3.6-0.92c-25.86-8.12-52.28-11.11-79.28-8.61
				c-47.87,4.43-88.89,23.74-123.37,57.12c-4.04,3.91-6.69,3.91-10.68-0.07c-11.19-11.17-22.37-22.36-33.54-33.55
				c-3.95-3.96-3.93-6.77,0.05-10.68c35.18-34.47,76.68-57.58,124.59-69.04c26.51-6.34,53.4-8.37,80.6-6.35
				c12.71,0.94,25.27,2.82,37.72,5.45c1.55,0.33,2.35,0.76,1.82,2.57c-0.41,1.4-0.53,2.9-0.6,4.36c-0.08,1.65-0.77,1.89-2.27,1.55
				c-17.12-3.9-34.47-5.93-52.02-6.2c-32.56-0.51-64.12,4.86-94.6,16.38c-32.41,12.25-61.11,30.4-86.21,54.27
				c-0.43,0.41-0.81,0.87-1.27,1.22c-1.12,0.87-0.88,1.55,0.04,2.47c9.87,9.79,19.72,19.6,29.51,29.46c1.23,1.23,1.92,1.2,3.15,0.02
				c14.86-14.24,31.44-26.09,49.8-35.41c25.16-12.77,51.79-20.27,79.96-22.29c25.58-1.83,50.64,0.91,75.25,8.06
				c1.52,0.44,2.32,1.14,2.69,2.71C345.81,200.82,346.67,203.22,347.47,205.82z"/>
			<path class="st1" d="M292.14,259.09c27.44,0.36,59.53,13.18,86.5,38.73c3.19,3.02,3.19,7,0.11,10.08
				c-11.41,11.37-22.81,22.75-34.21,34.13c-3.45,3.44-6.37,3.48-9.93,0.2c-16.71-15.4-36.42-22.33-59.03-20.39
				c-17.22,1.48-32.12,8.46-44.78,20.22c-0.43,0.4-0.84,0.82-1.28,1.22c-3.04,2.83-6.17,2.83-9.12-0.12
				c-10.42-10.38-20.81-20.79-31.21-31.19c-1.2-1.2-2.4-2.38-3.59-3.59c-3.18-3.23-3.19-6.45,0.01-9.6
				c10.79-10.61,22.95-19.29,36.57-25.88C241.39,263.6,261.27,259.08,292.14,259.09z M280.19,267.4c-2.41,0.15-4.69,0.26-6.96,0.43
				c-30.37,2.3-56.68,13.95-79.1,34.49c-0.98,0.9-1.28,1.45-0.14,2.58c9.68,9.57,19.26,19.22,28.91,28.81
				c2.49,2.48,1.75,2.39,4.42,0.08c15.21-13.14,32.87-20.15,52.94-20.67c21.71-0.56,40.9,6.35,57.39,20.52
				c1.46,1.25,2.2,1.2,3.53-0.14c9.56-9.68,19.18-19.3,28.86-28.87c1.39-1.37,1.41-2.09-0.08-3.42
				C344.32,278.4,314.33,267.25,280.19,267.4z"/>
			<path class="st1" d="M318.9,410.44c-0.33,20.86-16.91,36.68-38.02,36.29c-19.7-0.36-35.61-17.24-35.31-37.47
				c0.3-20.02,17.15-36.11,37.48-35.78C302.95,373.8,319.22,390.58,318.9,410.44z M254.03,409.94
				c-0.06,15.69,12.54,28.39,28.19,28.43c15.51,0.04,28.15-12.56,28.25-28.15c0.09-15.47-12.59-28.28-28.08-28.35
				C266.9,381.79,254.09,394.47,254.03,409.94z"/>
		</g>
	</g>
</g>
</svg>
