<?xml version="1.0" encoding="utf-8"?>
<!-- Generator: Adobe Illustrator 26.0.0, SVG Export Plug-In . SVG Version: 6.00 Build 0)  -->
<svg version="1.1" id="Layer_1" xmlns="http://www.w3.org/2000/svg" xmlns:xlink="http://www.w3.org/1999/xlink" x="0px" y="0px"
	 viewBox="0 0 390.37 414.4" style="enable-background:new 0 0 390.37 414.4;" xml:space="preserve">
<style type="text/css">
	.st0{fill:#77C07F;}
	.st1{fill:#82C488;}
	.st2{fill:#80C386;}
	.st3{fill:#7CC282;}
	.st4{fill:#7BC282;}
	.st5{fill:#82C487;}
</style>
<g>
	<path class="st0" d="M345.38,104.62c-3.87,14.89,2.87,25.29,14.01,34.13c4.22,3.35,7.83,7.51,11.54,11.47
		c15.4,16.4,15.35,42.32-0.22,58.58c-7.06,7.38-14.31,14.59-21.68,21.66c-2.6,2.5-3.82,5.02-3.72,8.71
		c0.26,9.57,0.11,19.15,0.08,28.73c-0.06,25.02-18.8,43.83-43.9,44.01c-10.06,0.07-20.11,0.09-30.17-0.04
		c-2.61-0.03-4.48,0.75-6.29,2.61c-7.02,7.2-14.14,14.3-21.3,21.36c-17.74,17.51-43.97,17.44-61.76-0.14
		c-6.92-6.85-13.86-13.69-20.62-20.69c-2.16-2.23-4.37-3.14-7.5-3.17c-11.8-0.1-23.66,1.05-35.39-0.51
		c-22.55-2.98-37.75-20.42-38.05-43.22c-0.13-9.9-0.15-19.8,0.05-29.69c0.06-3.17-0.98-5.35-3.2-7.5
		c-6.88-6.66-13.62-13.47-20.34-20.29c-17.99-18.25-18.02-44.2-0.04-62.48c6.71-6.83,13.43-13.66,20.35-20.28
		c2.41-2.31,3.22-4.71,3.23-7.97c0.05-11.32-0.68-22.67,0.4-33.97c2.12-22.16,19.97-38.67,42.27-39.03
		c10.53-0.17,21.07-0.11,31.6,0.01c2.44,0.03,4.17-0.71,5.86-2.44c7.15-7.3,14.38-14.52,21.65-21.69
		c17.58-17.33,43.76-17.31,61.37,0.05c7.16,7.06,14.3,14.14,21.3,21.36c1.95,2.02,3.96,2.76,6.72,2.72
		c10.05-0.14,20.11-0.09,30.17-0.04c24.46,0.11,43.36,18.95,43.55,43.38C345.41,95.05,345.38,99.84,345.38,104.62z M290.62,137.66
		c-0.7-0.75-1.42-1.59-2.19-2.37c-4.39-4.41-8.94-8.67-13.14-13.26c-2.46-2.69-4-2.85-6.79-0.16
		c-25.52,24.57-51.23,48.93-76.78,73.46c-2.55,2.45-3.98,2.91-6.73,0.13c-8.31-8.38-17.04-16.35-25.45-24.63
		c-2.11-2.08-3.4-2.46-5.72-0.18c-5.12,5.03-10.48,9.82-15.93,14.48c-2.51,2.15-2.73,3.49-0.2,5.92
		c15.89,15.24,31.7,30.58,47.33,46.08c2.76,2.74,4.11,2,6.42-0.32c12.25-12.35,24.64-24.56,37-36.79
		c19.84-19.65,39.71-39.27,59.54-58.93C288.94,140.14,290.29,139.41,290.62,137.66z"/>
	<path class="st1" d="M390.37,358.41c0.02,11.16-9.11,20.46-20.25,20.6c-11.16,0.14-20.82-9.49-20.72-20.66
		c0.1-11.1,9.42-20.32,20.55-20.32C381.07,338.04,390.35,347.3,390.37,358.41z M352.89,358.38c-0.02,9.62,7.28,17.03,16.85,17.11
		c9.82,0.08,17.27-7.37,17.19-17.21c-0.08-9.62-7.42-16.86-17.08-16.84C360.2,341.47,352.9,348.75,352.89,358.38z"/>
	<path class="st2" d="M15.15,49.82C6.77,49.74-0.14,42.78,0,34.56c0.14-8.21,7.2-15.24,15.34-15.27
		c8.19-0.03,15.24,7.01,15.27,15.24C30.65,43.24,23.91,49.9,15.15,49.82z M27.41,34.35c-0.13-6.65-5.75-11.85-12.57-11.63
		c-6.61,0.21-11.57,5.51-11.42,12.2c0.15,6.56,5.52,11.84,12.01,11.81C22.07,46.7,27.54,41.04,27.41,34.35z"/>
	<path class="st3" d="M50.03,370.49c-1.67-0.16-1.41-1.46-1.43-2.52c-0.04-3.35-0.22-6.71,0.04-10.04c0.24-3.08-1-3.88-3.85-3.68
		c-3.01,0.21-6.06,0.13-9.09,0.01c-1.22-0.05-3.36,0.79-3.22-1.56c0.13-2.16,2.17-1.33,3.43-1.39c2.87-0.12,5.75-0.21,8.61,0.01
		c3.02,0.23,4.39-0.65,4.11-3.93c-0.27-3.17-0.08-6.38-0.04-9.56c0.02-1.21-0.28-2.79,1.71-2.71c1.92,0.08,1.6,1.66,1.62,2.86
		c0.05,3.35,0.13,6.7-0.01,10.05c-0.1,2.51,0.93,3.38,3.38,3.29c3.5-0.14,7.02-0.04,10.52-0.02c1.15,0.01,2.38,0.06,2.24,1.71
		c-0.11,1.31-1.19,1.29-2.15,1.29c-3.35,0.02-6.71,0.21-10.04-0.04c-3.26-0.25-4.16,1.09-3.96,4.12c0.21,3.18,0.05,6.38,0.03,9.57
		C51.94,369.22,51.95,370.59,50.03,370.49z"/>
	<path class="st4" d="M367.5,17.88c-0.23,1.53-1.49,1.33-2.55,1.35c-3.35,0.04-6.7,0.14-10.04-0.01c-2.73-0.13-3.69,0.97-3.57,3.63
		c0.15,3.34,0.05,6.69,0.01,10.04c-0.01,1.07,0.15,2.42-1.47,2.48c-1.67,0.06-1.55-1.28-1.56-2.37c-0.03-3.51-0.14-7.02,0.02-10.52
		c0.11-2.52-0.84-3.38-3.31-3.27c-3.5,0.16-7.01,0.05-10.51,0.02c-1.1-0.01-2.42,0.07-2.38-1.57c0.04-1.65,1.4-1.45,2.47-1.46
		c3.51-0.03,7.02-0.16,10.51,0.03c2.56,0.13,3.34-0.83,3.23-3.3c-0.16-3.66-0.04-7.33-0.02-10.99c0.01-1,0.19-1.96,1.51-1.94
		c1.3,0.02,1.49,0.98,1.5,1.97c0.03,3.66,0.15,7.34-0.01,10.99c-0.11,2.54,0.88,3.36,3.33,3.25c3.5-0.15,7.01-0.04,10.51-0.02
		C366.3,16.21,367.52,16.15,367.5,17.88z"/>
	<path class="st5" d="M110.79,405c-0.02,5.14-4.46,9.53-9.49,9.4c-4.91-0.13-9.14-4.36-9.25-9.24c-0.11-5.04,4.32-9.59,9.34-9.6
		C106.59,395.55,110.8,399.78,110.79,405z M101.37,410.96c4.07-0.27,6.24-2.52,6.14-6.14c-0.1-3.58-2.27-5.93-6.18-5.77
		c-3.78,0.16-5.94,2.26-5.87,6.06C95.54,408.94,97.89,410.75,101.37,410.96z"/>
</g>
</svg>
