<?xml version="1.0" encoding="utf-8"?>
<!-- Generator: Adobe Illustrator 26.0.0, SVG Export Plug-In . SVG Version: 6.00 Build 0)  -->
<svg version="1.1" id="Layer_1" xmlns="http://www.w3.org/2000/svg" xmlns:xlink="http://www.w3.org/1999/xlink" x="0px" y="0px"
	 viewBox="0 0 232 232" style="enable-background:new 0 0 232 232;" xml:space="preserve">
<style type="text/css">
	.st0{fill:#F9FBFE;}
	.st1{fill:#F6F8FC;}
	.st2{fill:#FFFFFF;}
	.st3{fill:#BCC5E4;}
	.st4{fill:#223E60;}
</style>
<g id="Group_165" transform="translate(-898.036 -255.479)">
	<circle id="Ellipse_19" class="st0" cx="1014.04" cy="371.48" r="116"/>
	<circle id="Ellipse_18" class="st1" cx="1013.54" cy="370.98" r="85.5"/>
	<g id="receipt" transform="translate(976.327 335.196)">
		<path id="Path_226" class="st2" d="M60.75,69.56H11.04V9.85h52.18l-1.17,0.96c-0.85,0.7-1.33,1.75-1.31,2.86V69.56z"/>
		<path id="Path_227" class="st3" d="M60.72,18.25v-3.57c0-2.7,2.19-4.89,4.89-4.89H13.34l-1.46,2.24
			c-0.51,0.79-0.79,1.71-0.79,2.65v3.57H3.34c-1.04,0-1.88-0.84-1.88-1.88c0,0,0,0,0,0V3.34c0-1.04,0.84-1.88,1.88-1.88H71.9
			c1.04,0,1.88,0.84,1.88,1.88l0,0v13.02c0,1.04-0.84,1.88-1.88,1.88L60.72,18.25z"/>
		<g id="Group_164" transform="translate(0 0)">
			<path id="Path_228" class="st4" d="M19.39,68.1h-3.7c-0.8,0-1.46,0.65-1.46,1.46c0,0.8,0.65,1.46,1.46,1.46h3.7
				c0.8,0,1.46-0.65,1.46-1.46C20.84,68.75,20.19,68.1,19.39,68.1z"/>
			<path id="Path_229" class="st4" d="M28.51,68.1h-3.7c-0.8,0-1.46,0.65-1.46,1.46c0,0.8,0.65,1.46,1.46,1.46h3.7
				c0.8,0,1.46-0.65,1.46-1.46C29.96,68.75,29.31,68.1,28.51,68.1z"/>
			<path id="Path_230" class="st4" d="M37.62,68.1h-3.7c-0.8,0-1.46,0.65-1.46,1.46c0,0.8,0.65,1.46,1.46,1.46h3.7
				c0.8,0,1.46-0.65,1.46-1.46C39.08,68.75,38.42,68.1,37.62,68.1z"/>
			<path id="Path_231" class="st4" d="M46.74,68.1h-3.7c-0.8,0-1.46,0.65-1.46,1.46c0,0.8,0.65,1.46,1.46,1.46h3.7
				c0.8,0,1.46-0.65,1.46-1.46C48.19,68.75,47.54,68.1,46.74,68.1L46.74,68.1z"/>
			<path id="Path_232" class="st4" d="M55.85,68.1h-3.67c-0.8,0-1.46,0.65-1.46,1.46c0,0.8,0.65,1.46,1.46,1.46h3.7
				c0.8,0,1.46-0.65,1.46-1.46c0-0.8-0.65-1.46-1.46-1.46H55.85z"/>
			<path id="Path_233" class="st4" d="M71.9,0H3.34C1.5,0.01,0.01,1.5,0,3.34v13.02c0.01,1.84,1.5,3.33,3.34,3.33h6.31v49.87
				c0,0.8,0.65,1.46,1.46,1.46s1.46-0.65,1.46-1.46l0,0V14.68c0-1.9,1.54-3.44,3.44-3.44l0,0h44.29c-0.66,1.02-1.02,2.22-1.02,3.44
				l-0.09,54.88c0,0.8,0.65,1.46,1.46,1.46s1.46-0.65,1.46-1.46l0,0l0.09-49.85h9.73c1.84-0.01,3.33-1.5,3.33-3.33V3.34
				C75.23,1.5,73.74,0.01,71.9,0z M72.32,16.37c0,0.23-0.19,0.42-0.42,0.42h-9.73v-2.11c0-1.9,1.54-3.44,3.44-3.44l0,0h1.46
				c0.8,0,1.46-0.65,1.46-1.46c0-0.8-0.65-1.46-1.46-1.46H7.81c-0.8,0-1.46,0.65-1.46,1.46c0,0.8,0.65,1.46,1.46,1.46h2.91
				c-0.67,1.02-1.03,2.22-1.03,3.44v2.11H3.34c-0.23,0-0.42-0.19-0.42-0.42l0,0l0,0V3.34c0-0.23,0.19-0.42,0.42-0.42H71.9
				c0.23,0,0.42,0.19,0.42,0.42l0,0V16.37z"/>
			<path id="Path_234" class="st4" d="M20.36,27.5h16.37c0.8,0,1.46-0.65,1.46-1.46s-0.65-1.46-1.46-1.46H20.36
				c-0.8,0-1.46,0.65-1.46,1.46S19.56,27.5,20.36,27.5z"/>
			<path id="Path_235" class="st4" d="M43.04,27.5h8.13c0.8,0,1.46-0.65,1.46-1.46s-0.65-1.46-1.46-1.46l0,0h-8.13
				c-0.8,0-1.46,0.65-1.46,1.46S42.23,27.5,43.04,27.5z"/>
			<path id="Path_236" class="st4" d="M20.36,35.99h16.37c0.8,0,1.46-0.65,1.46-1.46s-0.65-1.46-1.46-1.46H20.36
				c-0.8,0-1.46,0.65-1.46,1.46S19.56,35.99,20.36,35.99z"/>
			<path id="Path_237" class="st4" d="M43.04,35.99h8.13c0.8,0,1.46-0.65,1.46-1.46s-0.65-1.46-1.46-1.46l0,0h-8.13
				c-0.8,0-1.46,0.65-1.46,1.46S42.23,35.99,43.04,35.99z"/>
			<path id="Path_238" class="st4" d="M20.36,44.49h16.37c0.8,0,1.46-0.65,1.46-1.46s-0.65-1.46-1.46-1.46H20.36
				c-0.8,0-1.46,0.65-1.46,1.46S19.56,44.49,20.36,44.49z"/>
			<path id="Path_239" class="st4" d="M43.04,44.49h8.13c0.8,0,1.46-0.65,1.46-1.46s-0.65-1.46-1.46-1.46l0,0h-8.13
				c-0.8,0-1.46,0.65-1.46,1.46S42.23,44.49,43.04,44.49z"/>
		</g>
	</g>
</g>
</svg>
