<?xml version="1.0" encoding="utf-8"?>
<!-- Generator: Adobe Illustrator 27.0.0, SVG Export Plug-In . SVG Version: 6.00 Build 0)  -->
<svg version="1.1" id="Layer_1" xmlns="http://www.w3.org/2000/svg" xmlns:xlink="http://www.w3.org/1999/xlink" x="0px" y="0px"
	 viewBox="0 0 1070.4 403.3" style="enable-background:new 0 0 1070.4 403.3;" xml:space="preserve">
<style type="text/css">
	.st0{fill:#2D72B5;}
	.st1{fill:#131B5C;}
</style>
<g>
	<g>
		<g>
			<path class="st0" d="M171.2,165.4c0,37-0.1,74,0.1,111c0,4.8-1.5,5.7-5.9,5.6c-40.2-0.1-80.3-0.1-120.5,0c-4,0-5.5-1-5.5-5.2
				c0.1-44.3,0.2-88.6,0-133c0-4.5,1.5-5.5,5.7-5.4c19,0.2,38-0.1,57,0.2c4.8,0.1,6.3-1.3,6.2-6.2c-0.2-25.8,0-51.7-0.2-77.5
				c0-5,1.3-6.6,6.4-6.5c16.8,0.3,33.7,0.3,50.5,0c4.7-0.1,6.2,1,6.2,6C171.1,91.4,171.2,128.4,171.2,165.4z"/>
		</g>
		<path class="st1" d="M100.7,65.6c0,20.1-0.1,40.3,0.1,60.4c0,3.6-0.5,5.2-4.8,5.1c-30.3-0.2-60.6-0.2-90.9,0c-3.9,0-5.1-1-5.1-5
			C0.1,85.6,0.1,44.9,0,4.3C0,0.6,1.3,0,4.6,0C35,0.2,65.5,0.2,96,0c4.2,0,4.8,1.5,4.8,5.2C100.6,25.3,100.7,45.4,100.7,65.6z"/>
		<path class="st1" d="M538.3,235.8c0,8.2-0.3,16.3,0.1,24.5c0.3,8,4,10.9,12,10.5c1.3-0.1,2.7-0.5,4-0.4c2.4,0.1,5.7-2.7,6.8-0.4
			c1.1,2.3-0.3,5.8-0.8,8.7c-0.3,1.8-1.9,1.7-3.1,1.9c-7.2,1.5-14.5,2.2-21.8,0.5c-6-1.5-9.8-5.4-11.1-11.6
			c-1.2-6-0.7-11.9-0.4-17.9c0.7-13.6,1.4-27.3,2.3-40.9c0.2-3.4-0.6-4.7-4.3-4.6c-6.7,0.3-13.3,0.2-20,0c-3.1-0.1-4.3,0.8-4.4,4.2
			c-0.4,21.8-1.3,43.6-1.6,65.4c-0.1,5.1-1.5,6.7-6.7,6.5c-8.8-0.5-8.4-0.1-8-8.6c1-21.3,1.7-42.6,2.7-63.9c0.2-3.6-2-3.5-4.5-3.5
			c-5.4,0-7.7-4.2-5.3-9.3c1-2.1,2.9-1.5,4.4-1.3c5.3,0.7,7.2-1.3,6.4-6.5c-0.2-1.4,0.2-3,0.4-4.5c1.7-16.2,7.6-21.4,23.9-21.6
			c4.7-0.1,9.3,0.4,13.9,1.3c2.5,0.5,3.5,1.5,3.6,4.2c0.1,6.9,0.3,6.9-6.6,5.7c-1.1-0.2-2.3-0.3-3.5-0.4
			c-16.8-1.9-18.5,5.9-18.7,18.9c0,2.3,1.1,2.8,3.1,2.8c7.7,0,15.3-0.1,23,0c2.4,0,3.3-1,3.3-3.2c0-0.8,0.1-1.7,0.2-2.5
			c0.6-10.7,0.6-10.6,11.4-12.2c2.5-0.4,2.5,0.7,2.4,2.4c-0.2,4-0.2,8-0.5,12c-0.3,3,0.9,3.7,3.7,3.7c5.3-0.1,10.7,0.1,16-0.1
			c3.3-0.1,3.8,1.7,3.2,4c-0.6,2.4,2.2,6.6-3.2,6.7c-5.3,0.1-10.7,0.2-16,0c-3.3-0.2-4.4,1-4.5,4.2c-0.3,8.5-0.7,17-1.1,25.5
			C538.6,235.8,538.4,235.8,538.3,235.8z"/>
		<path class="st1" d="M312.4,179.1c-7.3-1.9-14.3-3.7-21.7-4.3c-19.5-1.5-36.8,3.1-47.9,20.3c-11.2,17.4-11.7,36.2-2.1,54.7
			c6.8,13,18.8,18.8,33,20.4c11.4,1.2,22.6-0.7,33.6-3.7c1.1-0.3,2.2-0.5,3.2-0.7c0.3,0.4,0.5,0.5,0.5,0.6
			c-0.4,11.8-0.4,11.9-12.1,13.8c-14.9,2.5-29.9,2.9-44.4-2.2c-21.7-7.6-34.4-24.4-35.7-47.5c-0.8-14.2,1.4-28,9-40.3
			c11.1-18.1,28.5-25.2,48.6-27.1c10.7-1,21.3,0.2,31.8,1.9c3,0.5,4.5,1.6,4.3,4.8C312.3,172.9,312.4,175.9,312.4,179.1z"/>
		<path class="st1" d="M928.9,193.9c19.5,0,32.6,8.1,38.8,23.9c8.1,20.7,0.2,47.6-17,58.2c-16.1,9.8-48.5,9.4-61.2-12.7
			c-14.3-24.9-2.2-59.3,24.1-67.5C918.5,194.2,923.7,193.9,928.9,193.9z M898.5,239.5c0,3.5,0,7,0.8,10.4
			c2.7,12.1,11.1,20.2,22.1,21.3c15.7,1.5,26.1-3.9,31.3-16.5c4.2-10.3,4.9-20.9,2-31.7c-2.1-7.9-6.8-13.8-14.5-16.5
			c-16.2-5.8-34.3-0.6-39.7,19.3C899.1,230.3,898.4,234.8,898.5,239.5z"/>
		<path class="st1" d="M602.8,263.3c10.1,4.3,19.9,7.6,30.7,7.2c4.9-0.2,9.6-1,13.9-3.5c8-4.6,10.3-14.1,5.5-21.9
			c-3.5-5.6-8.5-9.7-13.5-13.9c-9-7.7-18.6-14.5-26.3-23.7c-10.5-12.6-6.6-27.7,1.6-35.7c5.7-5.6,13.2-7.7,20.9-8.5
			c9.7-1,19.3,0.3,28.8,1.8c2,0.3,2.4,1.2,2.5,2.9c0.2,3.3,0.5,6.6,0.9,10.5c-6.7-1.4-12.8-3.5-19.2-3.9c-5.9-0.4-11.7,0-17,2.7
			c-9,4.5-11.4,13.3-6.1,21.8c3.5,5.6,8.4,9.8,13.5,13.9c8.1,6.6,16.7,12.7,23.7,20.6c5.5,6.2,9.1,13.1,8.5,21.7
			c-0.9,13.7-10.4,23.2-26.1,25.8c-13.1,2.2-25.9,0.3-38.5-3.1c-2.1-0.6-3.1-1.5-3.1-3.8C603.5,270.8,602.2,267.3,602.8,263.3z"/>
		<path class="st1" d="M1004.7,212.7c12.1-16.7,36-22.3,53.6-13.2c8.4,4.4,12.3,11.8,12.1,20.9c-0.4,19.3-1.3,38.6-2,57.9
			c-0.1,2.6-0.9,3.7-3.8,3.8c-11.3,0.3-11.2,0.4-10.5-10.7c0.8-13.3,1.6-26.6,2-39.9c0.5-19.8-12.9-29.4-32-23.2
			c-11.5,3.8-17.5,12.1-19.5,23.7c-2.5,14.8-2.7,29.8-2.9,44.8c0,4-1,5.4-5.2,5.3c-10.3-0.3-10,0-9.3-10.4
			c1.6-23.1,3.4-46.2,3.3-69.4c0-4.1,1-5.4,5.2-5.2c9.6,0.3,9.6,0.1,9.1,9.7C1004.6,208.6,1004.7,210.2,1004.7,212.7z"/>
		<path class="st1" d="M393.4,209.1c0.4-3.1,0.9-5.7,1-8.3c0.1-2.1,1.2-2.9,2.9-3.3c14.6-3.2,29.2-5,44.1-2.3
			c11.8,2.2,17.5,8.8,17.2,20.8c-0.5,20.6-1.6,41.3-2.2,61.9c-0.1,3.6-1.6,4.3-4.8,4.3c-10.1-0.1-10,0-9.4-10.1
			c0.8-13.3,1.4-26.6,2.1-40.8c-10.9,7.1-23.3,8.1-34.4,12.6c-4,1.6-7.9,3.5-10.8,6.9c-6,7-3.9,16.7,4.5,20.4
			c7.6,3.3,15.3,2.4,23.1,0.8c1.7-0.4,3.4-0.9,5.2-1.3c0.2,0.6,0.4,0.9,0.3,1.2c-2.4,9-2.4,9-12.1,10c-7.9,0.8-15.6,0.6-23.2-1.8
			c-7.4-2.3-12.7-6.9-14.1-14.7c-1.6-8.6-0.2-16.6,7-22.7c6.3-5.3,14-7.4,21.7-9.5c7-1.9,14.3-3.1,21.1-5.8c2-0.8,4-1.7,5.8-2.8
			c3.9-2.5,6.2-6,5.7-10.9c-0.5-4.7-3.4-7.5-7.6-9c-8.5-3.1-17.1-2-25.7-0.7C405,204.8,399.4,206.8,393.4,209.1z"/>
		<path class="st1" d="M867.7,267.9c-0.5,3.8-0.9,6.9-1.3,9.9c-0.2,1.4-1.1,2-2.3,2.2c-13.2,2.4-26.4,3.7-39.3-1.5
			c-11.3-4.6-17.7-13.4-20.1-25c-2.3-11.2-2-22.6,1.8-33.5c4.8-13.6,14.2-22.2,28.6-25c10.6-2,21.2-1.3,31.7,1.2
			c2.9,0.7,5.5,9.4,3.5,11.4c-1,1.1-2.2,0-3.2-0.3c-6.4-1.8-13-3.1-19.7-3.1c-12.5-0.1-22.2,6.5-26.6,18.2c-3.4,9.3-4.2,18.8-2,28.5
			c2.6,11.6,12,19.4,24.2,20.3C851.3,271.8,859.3,270.7,867.7,267.9z"/>
		<path class="st1" d="M745.1,218.7c-0.6,21.3-1.3,39.3-1.6,57.3c-0.1,4.6-1.1,6.4-6.1,6.2c-9.2-0.4-9.4-0.1-8.9-9.3
			c2-34.9,3.9-69.9,4.1-104.9c0-4.2,1.4-5.3,5.5-5.2c9.9,0.3,9.9,0.1,9.4,9.7C746.6,189.2,745.8,205.6,745.1,218.7z"/>
		<path class="st1" d="M344.9,210.8c6.2-11.6,15.2-15.4,26.4-15.3c3.9,0.1,5.9,1.3,5.9,5.8c-0.1,6.8,0.3,6.8-6.3,6.2
			c-14-1.3-24.6,8.4-26.4,24c-1.8,14.9-1.7,29.9-1.6,44.9c0,4.2-0.8,5.9-5.4,5.7c-9.3-0.4-9.6-0.1-9-9.6c1.4-23.8,2.4-47.6,2.1-71.4
			c0-3.1,0.9-3.9,3.9-3.9c10,0,10-0.2,10,10.1C344.6,207.9,344.7,208.6,344.9,210.8z"/>
		<path class="st1" d="M784.7,206c-1.4,23.7-2.3,47.5-2.1,71.3c0,3.4-0.7,4.8-4.3,4.4c-3.6-0.4-8.3,1.1-10.6-0.7
			c-2.6-2-0.2-6.8,0-10.3c1.3-24.4,2.6-48.8,2.7-73.2c0-4.4,1.6-5.1,5.5-5c9.7,0.2,9.7,0.1,9.1,9.6
			C784.8,203.3,784.7,204.7,784.7,206z"/>
		<path class="st1" d="M704.7,237.2c0,13.5-0.1,27,0.1,40.4c0,2.9-0.6,4-3.8,4.1c-11.9,0.2-11.7,0.3-11-11.7
			c1.5-24.3,2.8-48.5,2.6-72.8c0-3.7,0.9-4.8,4.7-4.8c10.8,0.1,10.7-0.1,10,10.9c-0.7,11.3-1.2,22.6-1.7,33.9
			C705.3,237.2,705,237.2,704.7,237.2z"/>
		<path class="st1" d="M837.4,369.5c0-4.8,0.2-9.7-0.1-14.5c-0.1-2.7,1-3.8,3.5-4.4c7.1-1.7,14.1-2.7,20.7,1.5
			c1.4,0.9,2.2,0.6,3.5-0.1c3.3-2.1,7-2.9,11-2.7c7.4,0.3,11.7,4.5,11.8,12c0.1,7.3-0.2,14.7,0.1,22c0.1,3.7-1.4,4.2-4.6,4.4
			c-3.8,0.1-3.8-1.9-3.8-4.6c0.1-7,0.1-14,0-21c0-5-2.4-7.6-6.7-7.3c-4.5,0.3-6.3,2.6-6,7.2c0.4,7.3-0.1,14.6,0.2,22
			c0.1,3.5-1.7,3.6-4.3,3.6c-2.7,0-4.3-0.2-4.2-3.7c0.3-7.3,0.1-14.6,0-22c-0.1-4.9-2.2-7.1-6.9-7.3c-3.7-0.1-6.2,0.6-6,5.5
			c0.4,8,0,16,0.2,24c0.1,3.2-1.4,3.5-3.9,3.4c-2.4-0.1-4.6,0.3-4.4-3.4C837.7,379.1,837.4,374.3,837.4,369.5z"/>
		<path class="st1" d="M982.1,371.6c0,5.5,0.3,11-0.1,16.5c-0.6,10.6-5.7,15.1-16.3,15.2c-3,0-5.9-0.6-8.8-1.4
			c-1.7-0.4-3.4-1-2.3-3.3c0.8-1.6,1-4.1,4.1-2.4c2.5,1.4,5.5,1.3,8.3,1c3.1-0.3,5.3-2,6.3-4.9c0.9-3,1.3-5.3-3.6-4.8
			c-10.8,1.2-16.7-4.1-17.9-15.2c-1.8-17.2,10-26.9,26.6-21.9c2.9,0.9,3.9,2.3,3.8,5.3C982,360.9,982.2,366.3,982.1,371.6
			C982.2,371.6,982.2,371.6,982.1,371.6z M973.8,368.6C973.8,368.6,973.8,368.6,973.8,368.6c0-2.8,0-5.7,0-8.5
			c0-5.8-3.4-7.7-8.6-4.8c-2.7,1.5-3.9,4.1-4.5,6.9c-0.8,4.4-0.9,8.9-0.1,13.4c0.9,4.7,4.2,7.5,8.6,7.4c2.9-0.1,4.8-0.9,4.5-4.4
			C973.7,375.2,973.8,371.9,973.8,368.6z"/>
		<path class="st1" d="M287.2,372.2c0,4.5,0,9,0,13.5c0,13.1-6,18.6-19,17.4c-2.1-0.2-4.2-0.9-6.3-1.4c-1.9-0.4-3.1-1.1-1.9-3.4
			c0.8-1.5,0.7-3.8,3.6-2.4c2.7,1.3,5.8,1.5,8.8,1.1c2.7-0.3,4.7-1.7,5.8-4.2c1.8-4,0.6-5.6-3.7-5.4c-10.1,0.6-15.4-3.6-17.2-13.8
			c-3.2-17.7,9.8-29,26.8-23.2c2.2,0.8,3.2,1.8,3.2,4.2C287.1,360.6,287.2,366.4,287.2,372.2C287.2,372.2,287.2,372.2,287.2,372.2z
			 M278.9,368.7C278.9,368.7,278.9,368.7,278.9,368.7c0-2.8,0.1-5.7-0.1-8.5c-0.1-2,1.2-4.7-1.6-5.7c-3-1-5.9-0.4-8.3,1.8
			c-4.7,4.4-5,19.8-0.5,24.3c2.3,2.3,5.3,2.7,8.3,1.9c3.4-0.9,1.9-3.8,2-5.9C279,374,278.9,371.3,278.9,368.7z"/>
		<path class="st1" d="M555.4,372.3c0,4.5-0.2,9,0,13.5c0.7,14.1-7.9,18.8-20.5,17.2c-1.5-0.2-2.9-0.6-4.4-1.1
			c-1.6-0.5-3.9-0.5-2.5-3.5c0.9-1.9,1.2-3.8,4.1-2.3c2.1,1.1,4.5,1.2,6.8,1.1c4.7-0.1,7.3-2.5,8.2-7.1c0.5-2.4,0.1-3.4-2.7-2.9
			c-4.7,0.9-9.3,0.7-13.3-2.4c-6.9-5.4-8.3-20.8-2.6-29c4.6-6.7,17.6-9.1,25.1-4.8c1.7,1,1.6,2.3,1.6,3.8
			C555.4,360.6,555.4,366.5,555.4,372.3z M547.4,368.7c0-2.7,0.2-5.3-0.1-8c-0.2-2.1,1.3-5.1-1.7-6.1c-2.9-1-5.9-0.5-8.4,1.6
			c-5,4.2-5.3,20.2-0.5,24.6c2.4,2.3,5.3,2.5,8.4,1.7c3.3-0.9,2.1-3.7,2.2-5.8C547.6,374,547.4,371.3,547.4,368.7z"/>
		<path class="st1" d="M197.1,386.8c-6.4,1.6-10.5,0.2-13.2-5.5c-2-4.1-5-7.7-8.7-11.4c0,4.5-0.3,9.1,0.1,13.5
			c0.3,3.8-1.7,3.9-4.5,4c-3.1,0.1-4-0.9-4-3.9c0.1-15.6,0.2-31.3,0-46.9c0-3.4,1.5-3.8,4.2-3.8c2.7,0,4.3,0.4,4.3,3.8
			c-0.2,9.5-0.1,18.9-0.1,29.4c3.8-3.2,5.8-6.7,7.8-10.1c2.7-4.6,6.1-7.3,12.3-5.2c-3.2,4.3-6.2,8.7-9.6,12.8
			c-2.2,2.6-2.4,4.5-0.2,7.2C189.5,375.7,193.1,381.1,197.1,386.8z"/>
		<path class="st1" d="M80.5,351.1c2.6-0.7,4.5-1.3,6.5-1.6c8.5-1.4,14.4,3.6,14.5,12.1c0.1,7.2-0.1,14.3,0.1,21.5
			c0.1,3.1-0.7,4.3-4.1,4.3c-3.6,0-4.5-1.2-4.4-4.6c0.2-7,0.1-14,0-21c-0.1-3.9-1.4-6.8-6-7c-5.6-0.3-6.7,0.6-6.7,6.3
			c0,7.7-0.2,15.3,0.1,23c0.1,3.3-1.6,3.4-4,3.3c-2.2-0.1-4.6,0.6-4.6-3.3c0.2-16,0.2-32,0-48c0-3.9,2.4-3.1,4.6-3.3
			c2.5-0.2,4.1,0.1,3.9,3.3C80.3,341,80.5,345.9,80.5,351.1z"/>
		<path class="st1" d="M219.8,368.9c0-4.5,0.1-9-0.1-13.5c-0.1-2.8,0.8-4.2,3.6-4.8c6.2-1.5,12.4-2.3,18.7-0.2
			c4.4,1.5,7.1,4.5,7.2,9.2c0.2,8.3,0,16.7,0.1,25c0.1,3.7-2.5,2.7-4.5,2.8c-2.3,0.2-4.2,0.1-4.2-3.2c0.2-7.5,0.1-15,0-22.5
			c-0.1-5.3-2.2-7.3-7.3-7.1c-3.4,0.1-5.4,1.1-5.2,5.3c0.4,8-0.1,16,0.2,24c0.1,3.5-1.5,3.7-4.2,3.6c-2.4-0.1-4.6,0.2-4.5-3.5
			C220,378.9,219.8,373.9,219.8,368.9z"/>
		<path class="st1" d="M687.8,369.2c0-4.3,0.3-8.7-0.1-13c-0.3-3.9,1.4-5.2,4.8-5.9c5.9-1.2,11.8-1.9,17.7,0.2
			c4.1,1.5,6.8,4.3,6.9,8.8c0.2,8.5,0.2,17,0.2,25.4c0,4.1-3.2,2.3-5.1,2.6c-2.2,0.4-3.7-0.1-3.7-3.1c0.2-7.6,0.1-15.3,0-22.9
			c0-4.8-2.4-6.9-7.1-6.8c-3.4,0.1-5.4,1.1-5.2,5.2c0.4,8-0.1,16,0.2,23.9c0.1,3.3-1.2,3.9-4.1,3.8c-2.7-0.1-4.9,0.1-4.6-3.8
			C688.1,378.8,687.8,374,687.8,369.2z"/>
		<path class="st1" d="M488.1,369c0-4.7,0.1-9.3-0.1-14c-0.1-2.7,1-3.8,3.5-4.4c6.1-1.5,12.1-2.2,18.2-0.4c5.1,1.5,7.7,5,7.8,10.3
			c0,7.8-0.1,15.7,0.1,23.5c0.1,3.2-1.5,3.4-4,3.4c-2.4-0.1-4.6,0.4-4.5-3.4c0.2-7.3,0-14.7,0.1-22c0-4.3-1.7-7-6.2-7.5
			c-5-0.5-6.5,0.8-6.5,5.8c0,7.8-0.2,15.7,0.1,23.5c0.1,3.6-1.6,3.6-4.2,3.6c-2.4-0.1-4.6,0.3-4.4-3.4C488.3,379,488,374,488.1,369
			C488,369,488.1,369,488.1,369z"/>
		<path class="st1" d="M914.6,369.5c0-4.7,0.2-9.3-0.1-14c-0.2-3.2,1.1-4.4,4-5c5.7-1.3,11.5-2.1,17.2-0.5c5.7,1.6,8.5,4.9,8.6,10.7
			c0.2,7.8-0.1,15.6,0.1,23.5c0.1,3.5-2,3.1-4.2,3.1c-2.4,0-4.6,0.3-4.5-3.4c0.2-7.5,0-15,0.1-22.5c0-4.6-2.4-6.8-6.7-7
			c-3.9-0.2-6.6,0.6-6.3,5.7c0.4,7.5,0,15,0.2,22.5c0.1,3.2-0.4,4.8-4.2,4.8c-3.5,0-4.6-1-4.4-4.5
			C914.8,378.5,914.6,374,914.6,369.5z"/>
		<path class="st1" d="M806.5,368.8c0,13.9-8.3,21.6-20,18.7c-9.4-2.3-14-15.4-9.9-27.9c2.9-8.7,11.9-12.8,20.5-9.2
			C803.1,353,806.5,359.6,806.5,368.8z M798.1,368.7c-0.1-3.3-0.2-6.6-1.5-9.8c-1-2.6-2.9-4.1-5.6-4.3c-3-0.1-5.1,1.7-6,4.4
			c-2.1,6.3-2.2,12.8,0.1,19.1c0.9,2.5,2.7,4.2,5.6,4.2c3.1,0,4.9-1.5,6-4.3C798,375,798.1,371.8,798.1,368.7z"/>
		<path class="st1" d="M128.4,369.3c0-4.8,0-9.7,0-14.5c0-1.7,0-3.2,2.2-3.8c6.9-1.9,13.7-2.9,20.6-0.3c4,1.5,6.3,4.4,6.4,8.7
			c0.1,8.3-0.1,16.7,0.1,25c0.1,3.5-2.1,3-4.2,3.1c-2.3,0.1-4.2,0.1-4.1-3.2c0.2-7.5,0-15,0.1-22.5c0-4.5-2.2-6.8-6.6-7.2
			c-4.8-0.4-6.2,0.8-6.2,5.7c0,7.8-0.2,15.7,0.1,23.5c0.1,3.4-1.5,3.7-4.2,3.7c-2.6,0-4.5-0.1-4.2-3.7
			C128.6,379,128.4,374.1,128.4,369.3z"/>
		<path class="st1" d="M678.8,371.7c0,2.2,0,4.3,0,6.5c0,8.5,0,8.5-8.7,9.6c-3.5,0.4-7,0.4-10.4-0.3c-4.8-0.9-8.4-3.1-9.3-8.3
			c-1-5.7,0.9-9.8,5.8-12.6c3.4-1.9,7.2-2.6,10.9-3.3c1.5-0.3,3.6,0.4,3.7-2.2c0.1-2.5-0.4-4.7-3-5.7c-3.6-1.4-7.3-0.7-10.7,0.5
			c-2.3,0.8-3.4,0.2-4.1-1.9c-0.9-2.7,1.3-2.6,2.7-3.1c5-1.6,10-2.3,15.2-0.8c5.1,1.5,7.7,5,8,10.2
			C678.9,364,678.7,367.8,678.8,371.7C678.8,371.7,678.8,371.7,678.8,371.7z M670.9,374.9c0-1.5-0.1-3,0-4.5
			c0.2-2.6-0.8-3.7-3.5-3.1c-2.3,0.5-4.6,1-6.4,2.5c-3.3,2.7-3.6,6.5-2.1,10c1.7,3.9,5.6,3.7,9.1,3.3c4.6-0.6,2.2-4.3,2.8-6.7
			C671,375.9,670.9,375.4,670.9,374.9z"/>
		<path class="st1" d="M415.5,372c0,2.8-0.3,5.7,0.1,8.5c0.6,4.5-1.5,6.3-5.6,6.9c-4.8,0.7-9.6,1.1-14.4,0c-4.9-1.1-8.1-4-8.8-9
			c-0.7-4.9,1.3-8.8,5.5-11.4c3.5-2.2,7.5-2.7,11.3-3.7c1.6-0.4,4.1,0.7,4.2-2.3c0.1-2.7-0.9-4.9-3.8-5.8c-3.7-1.2-7.3-0.4-10.7,0.8
			c-1.8,0.6-2.6,0.6-3.3-1.3c-0.7-1.9-0.6-3,1.7-3.7c4.3-1.4,8.7-2.2,13.3-1.6c6.7,0.9,10.4,5,10.6,11.7
			C415.6,364.7,415.5,368.4,415.5,372z M407.8,374.4c-0.6-2.1,1.5-5.7-1.1-6.9c-2.8-1.3-6.2,0.4-8.8,2.3c-3.4,2.4-4.1,6-2.6,9.7
			c1.9,4.5,6,4.1,9.8,3.6c4.4-0.7,2.1-4.4,2.7-6.8C407.9,375.8,407.8,375.3,407.8,374.4z"/>
		<path class="st1" d="M331.8,364.3c0.1-6.4,1-12.3,4.4-17.5c4.6-7.2,13.5-10,21-6.8c1.8,0.8,3.2,1.3,2.2,3.9
			c-0.9,2.3-1.7,2.4-4,1.8c-6.1-1.6-10.5,0.8-12.6,6.7c-2.6,7.1-2.6,14.4-0.1,21.5c2.1,6,6.2,8.5,12.4,7c2.7-0.6,3.4,0,4.2,2.2
			c1,2.8-0.7,3.5-2.8,4.1c-11.6,3.6-22.1-3.5-24-16.4C332.1,368.6,332,366.2,331.8,364.3z"/>
		<path class="st1" d="M607.6,366.5c0-5.5-0.2-11,0.1-16.5c0.2-3.8-1.2-5.1-4.8-4.7c-1.9,0.2-4.3,0.9-4.3-2.8c0-3.5,2-3.1,4.2-3.1
			c6.3,0,12.7,0,19,0c2.3,0,3.8,0.2,3.7,3.1c-0.1,2.6-1.4,3.2-3.4,2.9c-4.9-0.8-5.7,1.5-5.6,5.8c0.3,10.8-0.1,21.7,0.2,32.5
			c0.1,3.9-1.9,3.7-4.5,3.8c-2.9,0.1-4.7-0.2-4.5-3.9C607.9,377.8,607.6,372.1,607.6,366.5z"/>
		<path class="st1" d="M47.8,366.3c0-5.5-0.2-11,0.1-16.5c0.1-3.4-0.9-4.9-4.4-4.5c-2.2,0.2-4.8,0.8-4.6-3.1
			c0.1-3.7,2.5-2.8,4.5-2.8c6.2-0.1,12.3,0,18.5,0c2.1,0,3.9-0.2,3.9,2.9c0,2.9-1.4,3.5-3.7,3.1c-5-0.9-5.6,1.8-5.5,5.9
			c0.2,10.8-0.1,21.6,0.1,32.4c0.1,3.3-1.3,3.9-4.1,3.8c-2.6-0.1-5,0.3-4.8-3.7C48,378,47.8,372.1,47.8,366.3z"/>
		<path class="st1" d="M756.6,370.7c0-3.8,0-7.6,0-11.5c0-1.9,0.6-3.7-2.6-4.2c-2.6-0.4-1.7-4.4-0.6-4.5c4.5-0.4,3.1-3.5,3.2-5.8
			c0.4-6.9,4.7-11.6,11.1-11.8c1.4-0.1,3.3-0.6,3.5,1.6c0.2,1.5,0.5,3.1-1.9,3.9c-5.1,1.6-4.4,6-4.2,10c0.1,2.3,2.1,1.7,3.5,1.7
			c1.9,0,2.6,0.7,2.6,2.7c0,2.1-1,2.7-2.8,2.5c-3.6-0.5-3.5,1.8-3.5,4.3c0,7.8-0.2,15.6,0.1,23.4c0.1,3.5-1,4.6-4.5,4.5
			c-3.3,0-4.3-1.2-4.1-4.3C756.7,379,756.6,374.9,756.6,370.7z"/>
		<path class="st1" d="M426.2,371.1c0-3.8,0-7.6,0-11.5c0-2,0.7-4.1-2.8-4.6c-2.4-0.4-1.7-4.4-0.5-4.5c4.9-0.5,3.1-3.9,3.3-6.3
			c0.5-6.7,4.6-11.1,10.9-11.3c1.4,0,3.3-0.7,3.4,1.6c0.1,1.5,0.7,3.2-1.8,3.9c-5.2,1.5-4.2,6.1-4.2,10c0,1.9,1.7,1.7,3,1.7
			c1.9-0.1,3.1,0.3,3.1,2.7c-0.1,2-1,2.7-2.8,2.4c-3.1-0.4-3.4,1.4-3.4,3.9c0.1,8.1-0.1,16.3,0.1,24.4c0.1,3.1-1,4-4,3.9
			c-2.8-0.1-4.8-0.2-4.5-3.9C426.4,379.4,426.2,375.2,426.2,371.1z"/>
		<path class="st1" d="M458.9,387.8c-6.4-0.1-10-3.7-10.2-10c-0.2-6.3,0-12.6-0.1-18.9c0-1.8,0.3-3.8-2.6-3.6
			c-1.7,0.1-1.5-1.4-1.5-2.5c0-0.9-0.2-2.4,1.1-2.4c3.8,0,3-2.6,3.1-4.8c0.1-3.3,3.8-6.4,7.2-5.8c2.6,0.5,1.2,2.7,1.3,4.1
			c0.3,3.1-1,7.1,4.6,6.5c1.6-0.2,1.4,1.5,1.5,2.6c0.1,1.7-0.7,2.6-2.3,2.4c-3.4-0.4-3.7,1.5-3.7,4.2c0.1,5.8,0.1,11.6,0,17.4
			c0,2.3,0.5,4.7,3,5.1c2.7,0.4,3.4,1.6,2.9,3.9C462.6,388.4,460.2,387.4,458.9,387.8z"/>
		<path class="st1" d="M737.4,349.2c2.1-0.3,4.4,0.4,6.5,1.4c1.2,0.5,3.3,0.6,1.9,2.9c-0.8,1.4-1,3.3-3.5,2.1
			c-1.3-0.6-2.9-0.6-4.4-0.7c-2.2,0-3.8,1-4.6,3.2c-0.8,2.2-0.1,4.1,1.7,5.3c2,1.4,4.3,2.4,6.5,3.6c4.5,2.3,6.6,6.1,5.9,11.1
			c-0.7,5-3.8,7.9-8.6,9.3c-3.6,1.1-7.3,0.8-10.8-0.2c-1.8-0.5-4.2-0.6-3.4-3.7c0.7-2.9,2.5-3,4.8-2c1.7,0.8,3.6,1,5.4,0.4
			c2-0.6,3.5-1.8,3.9-4.1c0.3-2.3-0.1-4.4-2.2-5.7c-1.3-0.8-2.7-1.3-4-2c-6-2.9-8.6-7-7.4-12C726.3,352.4,730.6,349.2,737.4,349.2z"
			/>
		<path class="st1" d="M647.3,349.5c-0.2,3.3-0.2,6.4-5.1,5.5c-2.9-0.6-4,1.1-3.9,4.1c0.2,8.1-0.1,16.3,0.1,24.4
			c0.1,3.2-1,4.1-4,3.9c-2.5-0.2-4.9,0.4-4.8-3.7c0.3-9.6,0.1-19.3,0-28.9c0-2.4,0.8-3.6,3.2-4.1
			C637.7,349.5,642.4,348.7,647.3,349.5z"/>
		<path class="st1" d="M827,349.3c1,0.9,4.3-2,4.3,1.9c0,2.8-1.2,4.5-4.7,3.8c-3.1-0.6-4.4,1-4.3,4.3c0.2,8-0.1,16,0.1,24
			c0.1,3.3-0.9,4.2-4.1,4.2c-3.3,0-4.7-0.8-4.6-4.4c0.2-9,0.2-18,0-27c-0.1-3.5,0.9-5.3,4.4-5.7C821,350,823.7,349,827,349.3z"/>
		<path class="st1" d="M384.3,349.5c-0.4,3.5-0.9,6.3-5.5,5.5c-2.8-0.5-4,1.2-3.9,4.2c0.2,8-0.1,16,0.1,24c0.1,3.3-0.9,4.3-4.2,4.3
			c-3.1,0-4.4-0.6-4.3-4.1c0.2-9.3,0.2-18.6,0-27.9c0-2.8,0.7-4.2,3.5-4.9C374.7,349.5,379.4,348.7,384.3,349.5z"/>
		<path class="st1" d="M110.6,368.7c0-5.1,0.2-10.3-0.1-15.4c-0.2-3.4,1.7-3.3,4-3.2c2.3,0.1,4.6-0.5,4.6,3.3
			c-0.2,10.3-0.2,20.6,0,30.8c0.1,3.9-2.4,3-4.6,3.2c-2.4,0.1-4.1,0.1-4-3.2C110.7,379,110.6,373.9,110.6,368.7z"/>
		<path class="st1" d="M210.7,369.2c0,4.8-0.2,9.6,0.1,14.4c0.2,3.3-1.2,3.9-4.1,3.8c-2.5-0.1-4.5,0.1-4.4-3.5
			c0.2-10.1,0.2-20.3,0-30.4c-0.1-3.7,1.9-3.4,4.4-3.5c2.8-0.1,4.3,0.3,4.1,3.7C210.5,358.9,210.7,364.1,210.7,369.2z"/>
		<path class="st1" d="M470.5,368.3c0-4.8,0.2-9.6-0.1-14.4c-0.2-3.3,1.2-3.9,4-3.8c2.4,0.1,4.5-0.2,4.4,3.5
			c-0.2,10.1-0.2,20.2,0,30.4c0.1,3.6-1.8,3.5-4.3,3.5c-2.8,0.1-4.3-0.4-4.1-3.7C470.7,378.6,470.5,373.4,470.5,368.3z"/>
		<path class="st1" d="M905.5,369c0,5.1-0.2,10.3,0.1,15.4c0.1,3.2-1.8,3.1-3.8,2.9c-1.9-0.1-4.6,1-4.5-2.7c0.1-10.6,0-21.2,0-31.9
			c0-3.7,2.7-2.4,4.6-2.6c2.1-0.2,3.9-0.2,3.8,2.9C905.4,358.4,905.5,363.7,905.5,369z"/>
		<path class="st1" d="M778.7,163c0.2,0,0.3,0,0.5,0c7.3,0,9.5,3.1,7.4,10.2c-0.6,1.9-1.8,1.6-3.1,1.6c-3.3,0-6.6-0.1-9.9,0.1
			c-2.4,0.1-3-0.9-3.1-3.2C770.2,163.1,770.1,163.1,778.7,163z"/>
		<path class="st1" d="M700.5,174.9c-0.2,0-0.3,0-0.5,0c-7.1,0-9.3-3.4-6.7-10.3c0.2-0.5,0.7-1.4,1.1-1.4c4.5-0.1,8.9-0.1,13.4,0
			c1.4,0,1.1,1.3,1.2,2.3C710.1,174.1,709.3,174.9,700.5,174.9z"/>
		<path class="st1" d="M569.1,387.7c-3.6-0.2-5.3-2-5.2-5.2c0.1-3.2,2.3-4.9,5.2-4.9c3,0,4.9,2.2,4.8,5.2
			C573.8,385.9,571.9,387.7,569.1,387.7z"/>
		<path class="st1" d="M995.5,387.7c-3.1-0.3-5-1.9-4.9-5.1c0-3.3,2.3-5,5.1-4.9c2.9,0,4.9,1.8,4.9,5.1
			C1000.5,386.2,998.5,387.4,995.5,387.7z"/>
		<path class="st1" d="M305.6,382.9c-0.1,2.9-1.7,4.7-4.9,4.8c-3.2,0-5-1.8-5.1-4.9c-0.1-3.1,2-5,4.9-5.1
			C303.6,377.7,305.5,379.4,305.6,382.9z"/>
		<path class="st1" d="M206.9,335.1c2.6,0.3,4.2,1.6,4,4.5c-0.2,2.6-1.9,3.7-4.4,3.7c-2.7,0-4.5-1.4-4.4-4.2
			C202.2,336.3,204.1,335.1,206.9,335.1z"/>
		<path class="st1" d="M901.5,343.3c-2.9-0.1-4.8-1.5-4.8-4.1c-0.1-2.6,1.8-4.1,4.5-4.2c2.7-0.1,4.5,1.2,4.5,4
			C905.7,341.9,904.1,343.2,901.5,343.3z"/>
		<path class="st1" d="M474.3,335.1c3.1,0,4.9,1.3,4.9,4.1c0,2.8-1.8,4.2-4.6,4.1c-2.5-0.1-4.2-1.2-4.3-3.8
			C470.2,336.6,471.9,335.3,474.3,335.1z"/>
		<path class="st1" d="M114.9,343.3c-2.5-0.1-4.4-1.2-4.4-4.1c0-2.8,1.7-4.1,4.4-4.2c2.7-0.1,4.5,1.3,4.6,4
			C119.5,341.8,117.7,343.2,114.9,343.3z"/>
	</g>
</g>
</svg>
