<?xml version="1.0" encoding="utf-8"?>
<!-- Svg Vector Icons : http://www.onlinewebfonts.com/icon -->
<!DOCTYPE svg PUBLIC "-//W3C//DTD SVG 1.1//EN" "http://www.w3.org/Graphics/SVG/1.1/DTD/svg11.dtd">
<svg version="1.1" xmlns="http://www.w3.org/2000/svg" xmlns:xlink="http://www.w3.org/1999/xlink" x="0px" y="0px" viewBox="0 0 256 256" enable-background="new 0 0 256 256" xml:space="preserve">
<metadata> Svg Vector Icons : http://www.onlinewebfonts.com/icon </metadata>
<g><g><g><path fill="#000000" d="M81.6,79.1c-50.7,50.7-70.5,70.9-71,72.5c-1.7,5.1-1.5,5.3,21.7,28.6l21.5,21.7l0.1,8.3c0.1,9,0.5,11,3.7,15.5c11.4,16.1,56.7,25.3,97.9,20c26.5-3.5,45.4-11.9,51.3-22.9c1.5-2.9,1.5-3,1.9-35.8l0.3-32.9l17.5-12.8c10.4-7.5,17.9-13.5,18.5-14.6c1.2-2.4,1.2-5.6-0.1-8c-0.6-1.1-3.5-5.2-6.4-9.2l-5.3-7.3l2.5-2.9c1.4-1.6,2.8-3.8,3-4.8c1.1-4.8,1.7-4.1-40.1-46L159.2,8.8h-3.7h-3.7L81.6,79.1z M187.4,60.7l31.5,32l-19.4,19.4l-19.4,19.5l-7.2-1.9c-13.9-3.5-21.3-4.3-41.6-4.3c-20.4,0-27.1,0.7-41.6,4.3c-14.4,3.6-24.9,8.8-30.8,15.3c-4.5,4.9-5,7.5-5,21.1v11.7l-11.6-11.6c-6.4-6.4-11.6-11.8-11.6-12.1c0-0.6,124.3-125.5,124.9-125.5C155.7,28.8,170,43.1,187.4,60.7z M223.6,117.7c1.4,1.5,2.3,2.9,2.1,3.3c-0.3,0.4-6.2,4.9-13.4,10.1c-12.7,9.2-13,9.4-15,8.6c-1.1-0.5-1.9-1.1-1.8-1.3c0.5-1,24.2-23.3,24.8-23.3C220.7,115.2,222.2,116.4,223.6,117.7z M77.3,181.5c28.1,11,75.5,11.4,105.8,0.7c6.6-2.4,7.3-2.5,8.8-1.6c2,1.3,3.6,3.9,3.6,5.6c0,3.6-8.8,9.4-19.5,12.9c-33.6,10.9-89.6,6.4-105.8-8.4c-3.7-3.5-3.9-5.6-0.7-8.9c1.3-1.3,2.5-2.3,2.7-2.3C72.3,179.6,74.6,180.5,77.3,181.5z M76.7,209.8c15.8,6.4,43.6,10,66.2,8.4c17.7-1.3,32-4.1,43.1-8.6l4.2-1.7l2.3,1.8c4.4,3.3,3.8,6.7-2,11.1c-16.5,12.5-63.7,16.8-96.6,8.8c-11.4-2.8-19.4-6.4-24.1-10.9c-3.3-3.1-3.4-5.3-0.3-8.4c1.3-1.3,2.5-2.3,2.7-2.3C72.3,208.2,74.3,208.9,76.7,209.8z"/></g></g></g>
</svg>